<?xml version="1.0" standalone="no"?>
<!DOCTYPE svg PUBLIC "-//W3C//DTD SVG 1.1//EN" "http://www.w3.org/Graphics/SVG/1.1/DTD/svg11.dtd" >
<svg xmlns="http://www.w3.org/2000/svg">
<metadata>Generated by IcoMoon</metadata>
<defs>
<font id="icomoon" horiz-adv-x="1024">
<font-face units-per-em="1024" ascent="960" descent="-64" />
<missing-glyph horiz-adv-x="1024" />
<glyph unicode="&#x20;" horiz-adv-x="512" d="" />
<glyph unicode="&#xe900;" glyph-name="weixin-1" horiz-adv-x="1170" d="M331.429 696.571q0 23.429-14.286 37.714t-37.714 14.286q-24.571 0-43.429-14.571t-18.857-37.429q0-22.286 18.857-36.857t43.429-14.571q23.429 0 37.714 14t14.286 37.429zM756 406.857q0 16-14.571 28.571t-37.429 12.571q-15.429 0-28.286-12.857t-12.857-28.286q0-16 12.857-28.857t28.286-12.857q22.857 0 37.429 12.571t14.571 29.143zM621.143 696.571q0 23.429-14 37.714t-37.429 14.286q-24.571 0-43.429-14.571t-18.857-37.429q0-22.286 18.857-36.857t43.429-14.571q23.429 0 37.429 14t14 37.429zM984 406.857q0 16-14.857 28.571t-37.143 12.571q-15.429 0-28.286-12.857t-12.857-28.286q0-16 12.857-28.857t28.286-12.857q22.286 0 37.143 12.571t14.857 29.143zM832 633.714q-17.714 2.286-40 2.286-96.571 0-177.714-44t-127.714-119.143-46.571-164.286q0-44.571 13.143-86.857-20-1.714-38.857-1.714-14.857 0-28.571 0.857t-31.429 3.714-25.429 4-31.143 6-28.571 6l-144.571-72.571 41.143 124.571q-165.714 116-165.714 280 0 96.571 55.714 177.714t150.857 127.714 207.714 46.571q100.571 0 190-37.714t149.714-104.286 78-148.857zM1170.286 313.143q0-66.857-39.143-127.714t-106-110.571l31.429-103.429-113.714 62.286q-85.714-21.143-124.571-21.143-96.571 0-177.714 40.286t-127.714 109.429-46.571 150.857 46.571 150.857 127.714 109.429 177.714 40.286q92 0 173.143-40.286t130-109.714 48.857-150.571z" />
<glyph unicode="&#xe901;" glyph-name="weixin" d="M327.854 646.605c-22.405 0-40.55 18.826-40.55 41.972 0 23.209 18.146 41.993 40.55 41.993 22.424 0 40.59-18.784 40.59-41.993 0-23.146-18.165-41.972-40.59-41.972zM528.842 730.569c22.405 0 40.53-18.784 40.53-41.993 0-23.146-18.126-41.972-40.53-41.972s-40.53 18.826-40.53 41.972c0 23.209 18.126 41.993 40.53 41.993zM701.66 639.447c4.101 0 8.122-0.085 12.143-0.296-21.275 123.882-140.984 218.732-285.455 218.732-159.506 0-288.803-115.602-288.803-258.226 0-83.605 44.433-157.955 113.37-205.115 0.891-0.614 2.654-1.779 2.654-1.779l-27.931-93.452 104.416 56.838c0 0 3.269-1.016 4.913-1.504 28.704-8.534 59.448-13.172 91.381-13.172 6.517 0 12.995 0.275 19.413 0.635-5.923 19.631-9.172 40.278-9.172 61.602 0 130.193 117.807 235.736 263.070 235.736zM584.661 477.316c0 19.567 15.333 35.428 34.251 35.428 18.958 0 34.29-15.861 34.29-35.428 0-19.609-15.333-35.492-34.29-35.492-18.918 0-34.251 15.882-34.251 35.492zM754.468 477.316c0 19.567 15.313 35.428 34.231 35.428 18.958 0 34.29-15.861 34.29-35.428 0-19.609-15.333-35.492-34.29-35.492-18.918 0-34.231 15.882-34.231 35.492zM459.821 402.182c0-120.473 109.269-218.16 244.034-218.16 26.961 0 52.931 3.939 77.198 11.181 1.387 0.381 4.14 1.271 4.14 1.271l88.172-48.049-23.573 78.946c0 0 1.506 1.016 2.258 1.525 58.181 39.833 95.759 102.621 95.759 173.287 0 120.473-109.23 218.118-243.954 218.118-134.764 0-244.034-97.645-244.034-218.118z" />
<glyph unicode="&#xe902;" glyph-name="wode" d="M638.529 405.368c53.411 41.344 87.807 106.071 87.807 178.841 0 124.836-101.202 226.037-226.041 226.037-124.833 0-226.035-101.201-226.035-226.037 0-72.921 34.539-137.765 88.138-179.097-217.897-68.902-193.773-305.736-193.773-305.736h62.927c0 0-4.672 256.831 265.443 258.835 1.099-0.016 2.197-0.042 3.299-0.042 1.073 0 2.14 0.026 3.208 0.040 1.268-0.010 2.529-0.013 3.809-0.034 288.391-4.677 283.596-258.8 283.596-258.8h65.591c0.001 0.001 19.882 237.407-217.968 305.993v0zM500.287 423.521c-88.74 0-160.681 71.937-160.681 160.677s71.94 160.682 160.681 160.682c88.745 0 160.681-71.94 160.681-160.682 0-88.74-71.935-160.677-160.681-160.677v0z" />
<glyph unicode="&#xe903;" d="M808.6 556.8c0 178.8-129.8 308.5-308.5 308.5-170.1 0-308.5-138.4-308.5-308.5 0-125.6 170.6-338.3 262.3-452.6l6.8-8.4c9.6-12 24-18.9 39.5-18.9 15.4 0 29.8 6.9 39.5 18.9l6.8 8.4c91.5 114.3 262.1 327 262.1 452.6zM498.5 467.4c-62.9 0-114 51.1-114 114s51.1 114 114 114 114-51.1 114-114-51.1-114-114-114z" />
<glyph unicode="&#xe904;" d="M500.1 892.2c-184.9 0-335.4-150.4-335.4-335.4 0-135 174.5-352.5 268.2-469.4l6.7-8.4c14.8-18.4 36.8-29 60.4-29s45.6 10.6 60.4 29l6.8 8.4c93.8 116.9 268.2 334.4 268.2 469.4 0 194.3-141 335.4-335.3 335.4zM500.1 76.9c-15.4 0-29.8 6.9-39.5 18.9l-6.8 8.4c-91.7 114.3-262.3 327-262.3 452.6 0 170.1 138.4 308.5 308.5 308.5 178.8 0 308.5-129.8 308.5-308.5 0-125.6-170.6-338.3-262.3-452.6l-6.8-8.4c-9.5-12-23.9-18.9-39.3-18.9z" />
<glyph unicode="&#xe905;" d="M411.3 581.4c0-48.159 39.041-87.2 87.2-87.2s87.2 39.041 87.2 87.2v0c0 48.159-39.041 87.2-87.2 87.2s-87.2-39.041-87.2-87.2v0z" />
<glyph unicode="&#xe906;" d="M612.5 581.4c0 62.9-51.1 114-114 114s-114-51.1-114-114 51.1-114 114-114 114 51.1 114 114zM411.3 581.4c0 48.1 39.1 87.2 87.2 87.2s87.2-39.1 87.2-87.2-39.1-87.2-87.2-87.2-87.2 39.1-87.2 87.2z" />
<glyph unicode="&#xe907;" glyph-name="dingwei-1" d="M516.602-64l-318.873 421.584c-40.49 46.021-65.29 126.536-65.29 214.046 0 205.609 164.654 372.867 367.056 372.867s367.056-167.258 367.056-372.867c0-72.193-20.57-142.434-59.479-203.168l-290.47-432.462zM499.495 898.011c-176.764 0-320.569-146.409-320.569-326.38 0-75.401 20.989-146.176 54.807-184.69l280.638-370.914 253.862 377.957c32.507 50.14 51.832 111.444 51.832 177.263 0 0.135 0 0.27 0 0.405v-0.021c0 179.972-143.829 326.38-320.569 326.38zM504.539 399.375c-93.6 0-169.768 75.68-169.768 168.699s76.168 168.722 169.768 168.722c93.623 0 169.791-75.68 169.791-168.722 0-93.019-76.168-168.699-169.791-168.699zM504.539 690.287c-67.986 0-123.282-54.831-123.282-122.236 0-67.382 55.295-122.212 123.282-122.212s123.305 54.831 123.305 122.212c0 67.428-55.319 122.236-123.305 122.236z" />
<glyph unicode="&#xe908;" glyph-name="uniE908" d="M834.5 711.7l-0.7-0.5c-6.6 10.3-18.2 17.2-31.3 17.2-20.5 0-37.2-16.7-37.2-37.2 0-8.7 3-16.8 8.1-23.1 66.4-115.8 50.3-266.4-48.5-365.2l-214.4-214.3-214.3 214.3c-118.2 118.1-118.2 310.4 0 428.6 57.1 57.1 133.2 88.6 214.3 88.6 59.6 0 116.6-17.1 165.3-48.8 5.9-4 13-6.3 20.7-6.3 20.5 0 37.2 16.7 37.2 37.2 0 12-5.7 22.7-14.5 29.5l0.3 0.4c-146.7 97.4-346.9 81.5-476.1-47.7-147.4-147.4-147.4-387.1-0.1-534.4l237.1-237.1c8-8 18.7-12.5 30.1-12.5s22.1 4.4 30.1 12.5l237.1 237.1c125 125 143.9 316.5 56.8 461.7zM364 521.5c0-80.8 65.7-146.5 146.5-146.5s146.5 65.7 146.5 146.5-65.7 146.5-146.5 146.5-146.5-65.7-146.5-146.5zM581 521.5c0-38.9-31.6-70.5-70.5-70.5s-70.5 31.6-70.5 70.5 31.6 70.5 70.5 70.5 70.5-31.6 70.5-70.5z" />
<glyph unicode="&#xe909;" glyph-name="dingwei-3" d="M648.251 109.723c-13.64-11.238-33.807-9.29-45.045 4.35s-9.29 33.808 4.351 45.046c150.748 124.191 224.443 234.848 224.443 329.807 0 177.728-143.304 321.74-320 321.74s-320-144.012-320-321.74c0-115.225 108.418-253.046 329.164-409.484 14.42-10.219 17.825-30.192 7.606-44.611-10.218-14.42-30.191-17.825-44.61-7.606-236.138 167.344-356.16 319.918-356.16 461.701 0 213.004 171.887 385.74 384 385.74s384-172.736 384-385.74c0-118.374-83.702-244.055-247.749-379.203zM512 341.333c-82.475 0-149.333 66.86-149.333 149.334s66.858 149.333 149.333 149.333 149.333-66.859 149.333-149.333c0-82.475-66.858-149.334-149.333-149.334zM512 405.333c47.128 0 85.333 38.205 85.333 85.334s-38.205 85.333-85.333 85.333-85.333-38.205-85.333-85.333c0-47.129 38.205-85.334 85.333-85.334z" />
<glyph unicode="&#xe90a;" d="M515.072 778.24c183.8 0 332.8-149 332.8-332.8s-149-332.8-332.8-332.8v0c-0.206 0-0.449-0.001-0.692-0.001-51.078 0-99.443 11.614-142.599 32.346l1.979-0.857c-20.736 9.728-44.032 14.336-72.96 14.336-22.272 0-45.568-2.56-68.096-5.376 4.608 42.752 9.216 94.72-15.104 142.592-22.444 43.6-35.6 95.143-35.6 149.76 0 183.8 149 332.8 332.8 332.8 0.096 0 0.192 0 0.287 0h-0.015zM515.072 880.64c-240.301-0.258-435.003-195.12-435.003-435.456 0-71.318 17.145-138.632 47.537-198.044l-1.143 2.46c25.6-50.432-24.064-156.672 18.176-193.536 8.192-7.168 22.784-9.472 40.192-9.472 35.072 0 82.688 9.472 115.968 9.472 12.032 0 22.272-1.28 29.44-4.608 54.154-26.016 117.735-41.216 184.867-41.216 240.354 0 435.2 194.846 435.2 435.2s-194.846 435.2-435.2 435.2c-0.012 0-0.024 0-0.036 0h0.001z" />
<glyph unicode="&#xe90b;" d="M637.696 266.752c-0.145-28.219-22.981-51.055-51.186-51.2h-153.614c-28.219 0.145-51.055 22.981-51.2 51.186v0.014c0.145 28.219 22.981 51.055 51.186 51.2h153.614c28.219-0.145 51.055-22.981 51.2-51.186v-0.014z" />
<glyph unicode="&#xe90c;" glyph-name="home" d="M789.333 853.333h-554.667c-36.267 0-64-27.733-64-64v-676.267c0-36.267 27.733-64 64-64h554.667c36.267 0 64 27.733 64 64v676.267c0 36.267-27.733 64-64 64zM810.667 113.067c0-12.8-8.533-21.333-21.333-21.333h-554.667c-12.8 0-21.333 8.533-21.333 21.333v676.267c0 12.8 8.533 21.333 21.333 21.333h554.667c12.8 0 21.333-8.533 21.333-21.333v-676.267zM704 661.333h-234.667c-12.8 0-21.333-8.533-21.333-21.333s8.533-21.333 21.333-21.333h234.667c12.8 0 21.333 8.533 21.333 21.333s-8.533 21.333-21.333 21.333zM298.667 640c0-0.002 0-0.004 0-0.007 0-23.564 19.103-42.667 42.667-42.667s42.667 19.103 42.667 42.667c0 0.002 0 0.005 0 0.007v0c0 0.002 0 0.004 0 0.007 0 23.564-19.103 42.667-42.667 42.667s-42.667-19.103-42.667-42.667c0-0.002 0-0.005 0-0.007v0zM704 465.067h-234.667c-12.8 0-21.333-8.533-21.333-21.333s8.533-21.333 21.333-21.333h234.667c12.8 0 21.333 8.533 21.333 21.333s-8.533 21.333-21.333 21.333zM298.667 443.733c0-0.002 0-0.004 0-0.007 0-23.564 19.103-42.667 42.667-42.667s42.667 19.103 42.667 42.667c0 0.002 0 0.005 0 0.007v0c0 0.002 0 0.004 0 0.007 0 23.564-19.103 42.667-42.667 42.667s-42.667-19.103-42.667-42.667c0-0.002 0-0.005 0-0.007v0zM704 277.333h-234.667c-12.8 0-21.333-8.533-21.333-21.333s8.533-21.333 21.333-21.333h234.667c12.8 0 21.333 8.533 21.333 21.333s-8.533 21.333-21.333 21.333zM298.667 256c0-0.002 0-0.004 0-0.007 0-23.564 19.103-42.667 42.667-42.667s42.667 19.103 42.667 42.667c0 0.002 0 0.005 0 0.007v0c0 0.002 0 0.004 0 0.007 0 23.564-19.103 42.667-42.667 42.667s-42.667-19.103-42.667-42.667c0-0.002 0-0.005 0-0.007v0z" />
<glyph unicode="&#xe90d;" glyph-name="home-1" d="M695.1 656.6h-367.6c-10.1 0-18.4-8.2-18.4-18.4 0-10.1 8.2-18.4 18.4-18.4h367.6c10.1 0 18.4 8.2 18.4 18.4s-8.2 18.4-18.4 18.4zM823.8 840.4h-624.9c-20.3 0-36.8-16.5-36.8-36.8v-735.1c0-20.3 16.5-36.8 36.8-36.8h624.9c20.3 0 36.8 16.5 36.8 36.8v735.2c-0.1 20.3-16.5 36.7-36.8 36.7zM823.8 86.9c0-10.1-8.2-18.4-18.4-18.4h-588.1c-10.1 0-18.4 8.2-18.4 18.4v698.4c0 10.1 8.2 18.4 18.4 18.4h588.1c10.2 0 18.4-8.2 18.4-18.4v-698.4zM695.1 491.2h-367.6c-10.1 0-18.4-8.2-18.4-18.4s8.2-18.4 18.4-18.4h367.6c10.1 0 18.4 8.2 18.4 18.4s-8.2 18.4-18.4 18.4z" />
<glyph unicode="&#xe90e;" glyph-name="home-2" d="M170.667 746.667h682.667v-85.333h-682.667v85.333zM170.667 234.667h426.667v-85.333h-426.667v85.333zM170.667 490.667h682.667v-85.333h-682.667v85.333z" />
<glyph unicode="&#xe90f;" glyph-name="home-3" d="M768 7.68h-512c-57.344 0-102.4 45.056-102.4 102.4v675.84c0 57.344 45.056 102.4 102.4 102.4h512c57.344 0 102.4-45.056 102.4-102.4v-677.888c0-55.296-47.104-100.352-102.4-100.352zM256 847.36c-34.816 0-61.44-26.624-61.44-61.44v-675.84c0-34.816 26.624-61.44 61.44-61.44h512c32.768 0 61.44 26.624 61.44 59.392v677.888c0 34.816-26.624 61.44-61.44 61.44h-512zM714.752 429.568h-405.504c-12.288 0-20.48 8.192-20.48 20.48s8.192 20.48 20.48 20.48h405.504c12.288 0 20.48-8.192 20.48-20.48s-8.192-20.48-20.48-20.48zM714.752 611.84h-405.504c-12.288 0-20.48 8.192-20.48 20.48s8.192 20.48 20.48 20.48h405.504c12.288 0 20.48-8.192 20.48-20.48s-8.192-20.48-20.48-20.48zM598.016 243.2h-288.768c-12.288 0-20.48 8.192-20.48 20.48s8.192 20.48 20.48 20.48h288.768c12.288 0 20.48-8.192 20.48-20.48s-8.192-20.48-20.48-20.48z" />
<glyph unicode="&#xe910;" glyph-name="-13" d="M512 799c96.5 0 175-78.5 175-175s-78.5-175-175-175-175 78.5-175 175 78.5 175 175 175zM512 863c-131.8 0-239-107.2-239-239s107.2-239 239-239 239 107.2 239 239-107.2 239-239 239zM512 385c66.2 0 130.6-18.8 186.4-54.4 54.4-34.7 98.3-83.7 126.9-141.6 14.1-28.6 2.5-52.8-3.1-61.9-5.6-9-22.1-30.1-53.7-30.1h-512.9c-31.6 0-48.1 21-53.7 30.1s-17.3 33.3-3.1 61.9c28.6 57.9 72.5 106.9 126.9 141.6 55.7 35.6 120.1 54.4 186.3 54.4zM512 449c-162.3 0-303-94.5-370.7-231.7-41.8-84.8 20.1-184.3 114.3-184.3h512.8c94.1 0 156.1 99.5 114.3 184.3-67.7 137.2-208.4 231.7-370.7 231.7z" />
<glyph unicode="&#xe911;" glyph-name="wode-1" d="M651.35 389.836c70.724 45.652 117.549 125.149 117.549 215.588 0 141.619-114.806 256.424-256.425 256.424s-256.424-114.805-256.424-256.424c0-90.688 47.079-170.379 118.129-215.971-150.69-53.654-261.205-191.995-274.264-357.747h64.183c15.778 177.399 157.756 312.373 338.533 317.5 3.268-0.123 6.545-0.206 9.843-0.206 3.564 0 7.106 0.093 10.635 0.236 181.192-4.717 323.6-139.845 339.402-317.53h64.184c-13.091 166.148-124.104 304.752-275.345 358.13zM320.063 605.424c0 106.266 86.146 192.412 192.411 192.412s192.412-86.146 192.412-192.412c0-102.905-80.785-186.941-182.395-192.153-2.724 0.065-5.945 0.102-9.175 0.104h-0.012c-3.455 0-6.899-0.043-10.334-0.127-101.85 4.954-182.907 89.097-182.907 192.176z" />
<glyph unicode="&#xe912;" glyph-name="wode-2" d="M493.609 811.295c91.771 0 166.441-75.796 166.441-168.96s-74.67-168.96-166.441-168.96-166.441 75.796-166.441 168.96 74.67 168.96 166.441 168.96v0zM581.222 358.994c122.573 0 222.29-101.13 222.31-225.444v-16.159c0-4.69-0.84-6.042-3.973-8.52-4.055-3.215-14.52-9.339-38.973-14.234-44.687-8.929-110.1-8.929-179.343-8.929h-159.314c-70.738 0-137.523 0-181.412 8.909-23.511 4.772-33.341 10.67-37.13 13.783-2.458 2.007-3.727 3.318-3.727 8.991v16.159c0 124.314 99.717 225.444 222.269 225.444h159.293zM493.609 858.112c-117.248 0-212.644-96.809-212.644-215.757s95.396-215.757 212.644-215.757c117.248 0 212.644 96.788 212.644 215.757s-95.396 215.757-212.644 215.757v0zM581.222 405.791h-159.314c-148.070 0-268.493-122.122-268.493-272.241v-16.159c0-78.5 118.497-78.5 268.493-78.5h159.314c144.097 0 268.513 0 268.513 78.5v16.159c0 150.098-120.443 272.241-268.513 272.241v0z" />
<glyph unicode="&#xe913;" glyph-name="wode-3" d="M885.465 11.634c-5.54 0-10.034 4.493-10.034 10.034 0 109.347-48.547 211.866-133.191 281.268-4.286 3.515-4.911 9.836-1.399 14.122 3.514 4.286 9.835 4.912 14.123 1.398 89.311-73.23 140.535-181.404 140.535-296.787 0-5.54-4.493-10.034-10.034-10.034zM138.534 11.634c-5.542 0-10.034 4.493-10.034 10.034 0 51.778 10.141 102.011 30.14 149.305 19.316 45.676 46.966 86.696 82.184 121.919s76.229 62.878 121.898 82.198c47.286 20.004 97.512 30.147 149.281 30.147 6.186 0 12.435-0.147 18.579-0.438 5.534-0.263 9.809-4.963 9.547-10.498-0.262-5.534-4.953-9.786-10.497-9.548-5.828 0.277-11.76 0.416-17.631 0.416-200.398 0-363.435-163.066-363.435-363.502 0-5.539-4.492-10.032-10.034-10.032zM518.304 383.732c-66.813 0-129.624 26.038-176.867 73.319-47.24 47.278-73.256 110.137-73.256 176.998s26.017 129.719 73.256 176.998c47.243 47.28 110.055 73.318 176.867 73.318s129.624-26.038 176.866-73.318c47.24-47.279 73.256-110.137 73.256-176.998s-26.017-129.72-73.256-176.998c-47.242-47.281-110.054-73.319-176.866-73.319zM518.304 864.299c-126.853 0-230.056-103.29-230.056-230.25s103.202-230.251 230.056-230.251c126.854 0 230.056 103.29 230.056 230.251s-103.201 230.25-230.056 230.25z" />
<glyph unicode="&#xe914;" glyph-name="xiaoxi-3" d="M842.667 296.533c-17.067 8.533-27.733 19.2-36.267 36.267-14.933 32-12.8 72.533-10.667 117.333 2.133 32 4.267 64 0 93.867-8.533 59.733-32 110.933-64 153.6-46.933 57.6-115.2 96-187.733 104.533v21.333c0 17.067-14.933 32-32 32s-32-14.933-32-32v-23.467c-23.467-2.133-46.933-8.533-70.4-17.067-81.067-34.133-147.2-104.533-172.8-194.133-12.8-44.8-10.667-87.467-8.533-132.267 2.133-49.067 6.4-96-14.933-132.267-6.4-12.8-14.933-17.067-36.267-25.6-29.867-14.933-49.067-44.8-49.067-78.933 2.133-42.667 36.267-78.933 81.067-78.933h164.267c10.667-68.267 68.267-119.467 138.667-119.467s130.133 53.333 138.667 119.467h164.267c44.8 0 78.933 36.267 78.933 81.067 2.133 46.933-34.133 66.133-51.2 74.667zM512 83.2c-36.267 0-64 23.467-74.667 55.467h147.2c-8.533-32-36.267-55.467-72.533-55.467zM814.933 204.8h-605.867c-8.533 0-14.933 8.533-17.067 17.067 0 8.533 4.267 14.933 10.667 17.067 21.333 8.533 46.933 21.333 64 53.333 32 53.333 27.733 113.067 23.467 168.533-2.133 38.4-4.267 76.8 4.267 108.8 21.333 70.4 72.533 125.867 136.533 151.467 23.467 10.667 49.067 14.933 74.667 14.933h2.133c64 0 128-29.867 170.667-83.2 25.6-32 44.8-74.667 51.2-121.6 4.267-23.467 2.133-51.2 0-81.067-2.133-49.067-6.4-100.267 17.067-147.2 12.8-27.733 34.133-51.2 64-64 17.067-8.533 17.067-10.667 17.067-17.067 4.267-10.667-2.133-17.067-12.8-17.067z" />
<glyph unicode="&#xe915;" glyph-name="xiaoxi-1" d="M512 750.545c115.679 0 209.455-93.776 209.455-209.455v-248.553c0-0.052 0-0.114 0-0.175 0-20.222 6.546-38.916 17.635-54.076l-0.181 0.259 33.047-46.545h-519.913l33.047 46.545c10.909 14.902 17.455 33.595 17.455 53.818 0 0.062 0 0.123 0 0.185v-0.010 248.553c0 115.679 93.776 209.455 209.455 209.455v0zM512 820.364c-154.238 0-279.273-125.035-279.273-279.273v0-248.553c-0.034-5.075-1.687-9.758-4.468-13.564l0.046 0.066-59.345-83.316c-5.396-7.5-8.629-16.871-8.629-26.996 0-25.706 20.839-46.545 46.545-46.545 0.006 0 0.013 0 0.019 0h610.21c0.005 0 0.012 0 0.018 0 25.706 0 46.545 20.839 46.545 46.545 0 10.126-3.233 19.496-8.724 27.135l0.095-0.139-59.345 83.316c-2.735 3.74-4.388 8.423-4.422 13.49v248.561c0 154.238-125.035 279.273-279.273 279.273v0zM535.273 843.636h-46.545c-19.277 0.003-34.903 15.631-34.903 34.909s15.626 34.906 34.903 34.909h46.546c19.277-0.003 34.903-15.631 34.903-34.909s-15.626-34.906-34.903-34.909v0zM593.455 5.818h-139.636c-19.28 0-34.909 15.629-34.909 34.909s15.629 34.909 34.909 34.909h139.636c19.28 0 34.909-15.629 34.909-34.909s-15.629-34.909-34.909-34.909v0z" />
<glyph unicode="&#xe916;" glyph-name="xiaoxi-2" d="M585.2 794.1c-7.6 0-13.8 6.2-13.8 13.8 0 32.7-26.6 59.2-59.2 59.2s-59.2-26.5-59.2-59.2c0-7.6-6.2-13.8-13.8-13.8s-13.8 6.2-13.8 13.8c0 47.9 38.9 86.8 86.8 86.8s86.8-38.9 86.8-86.8c0-7.6-6.2-13.8-13.8-13.8zM512.2 0.7c-64.6 0-117.1 52.5-117.1 117.1 0 7.6 6.2 13.8 13.8 13.8s13.8-6.2 13.8-13.8c0-49.3 40.1-89.5 89.5-89.5s89.5 40.1 89.5 89.5c0 7.6 6.2 13.8 13.8 13.8s13.8-6.2 13.8-13.8c-0.1-64.6-52.6-117.1-117.1-117.1zM833.6 102.8h-642.9c-27 0-49 22-49 49 0 2.4 0.7 4.9 1.9 7l86 146.9v236.1c0 155.8 126.7 282.5 282.5 282.5s282.5-126.7 282.5-282.5v-236.2l86-146.9c1.2-2.1 1.9-4.5 1.9-7 0-26.9-21.9-48.9-48.9-48.9zM169.7 148.4c1.6-10.2 10.4-18 21.1-18h642.8c10.6 0 19.5 7.8 21.1 18l-85.7 146.5c-1.2 2.1-1.9 4.5-1.9 7v239.9c0 140.5-114.3 254.9-254.9 254.9s-254.9-114.3-254.9-254.9v-239.9c0-2.4-0.7-4.9-1.9-7l-85.7-146.5z" />
</font>
</defs>
</svg>
